<mxfile host="app.diagrams.net" modified="2024-03-12T05:00:07.163Z" agent="Mozilla/5.0 (Windows NT 10.0; Win64; x64) AppleWebKit/537.36 (KHTML, like Gecko) Chrome/122.0.0.0 Safari/537.36" version="23.1.7" etag="GaM9y2gzgJCZuWOvnceV" type="github">
  <diagram name="第 1 页" id="NWMO6BMZdNA0H22S7Hdg">
    <mxGraphModel>
      <root>
        <mxCell id="0" />
        <mxCell id="1" parent="0" />
      </root>
    </mxGraphModel>
  </diagram>
</mxfile>
